#N canvas 0 0 1600 1113 12;
#X obj 177 33 loadbang;
#X msg 177 94 375;
#X floatatom 177 136 5 0 0 0 - - - 0;
#X obj 145 172 metro;
#X obj 145 94 tgl 15 0 empty empty empty 17 7 0 10 #fcfcfc #000000
#000000 0 1;
#X obj 66 172 sel 0;
#X obj 15 125 loadbang;
#X obj 66 214 bng 15 250 50 0 empty empty empty 17 7 0 10 #fcfcfc #000000
#000000;
#X obj 145 214 bng 15 250 50 0 empty empty empty 17 7 0 10 #fcfcfc
#000000 #000000;
#X obj 145 327 int 1;
#X obj 253 370 + 1;
#X msg 67 275 -1;
#X obj 144 436 % 8;
#X obj 145 492 + 1;
#X floatatom 145 534 5 0 0 0 - - - 0;
#X obj 145 666 sel 1;
#X obj 145 708 bng 15 250 50 0 empty empty empty 17 7 0 10 #fcfcfc
#000000 #000000;
#X obj 145 745 s One;
#X obj 218 708 bng 15 250 50 0 empty empty empty 17 7 0 10 #fcfcfc
#000000 #000000;
#X obj 302 708 bng 15 250 50 0 empty empty empty 17 7 0 10 #fcfcfc
#000000 #000000;
#X obj 380 708 bng 15 250 50 0 empty empty empty 17 7 0 10 #fcfcfc
#000000 #000000;
#X obj 453 708 bng 15 250 50 0 empty empty empty 17 7 0 10 #fcfcfc
#000000 #000000;
#X obj 525 708 bng 15 250 50 0 empty empty empty 17 7 0 10 #fcfcfc
#000000 #000000;
#X obj 604 708 bng 15 250 50 0 empty empty empty 17 7 0 10 #fcfcfc
#000000 #000000;
#X obj 218 666 sel 2;
#X obj 218 745 s Two;
#X obj 302 666 sel 3;
#X obj 302 745 s Three;
#X obj 380 666 sel 4;
#X obj 380 745 s Four;
#X obj 453 666 sel 5;
#X obj 453 745 s Five;
#X obj 525 666 sel 6;
#X obj 525 745 s Six;
#X obj 604 666 sel 7;
#X obj 604 745 s Seven;
#X obj 690 708 bng 15 250 50 0 empty empty empty 17 7 0 10 #fcfcfc
#000000 #000000;
#X obj 690 666 sel 8;
#X obj 690 745 s Eight;
#X text 218 93 BPM counter;
#X floatatom 144 395 5 0 0 0 - - - 0;
#X text 12 225 Reset;
#X text 191 435 Modulo for the output loop. Created a loop from 1 to
8;
#X text 746 665 Select obj outputs a bang when the value received is
equal to the first argument;
#X text 749 744 Send obj sends a bang to the object that matches its
first argument;
#X obj 119 895 receive One;
#X obj 119 937 bng 15 250 50 0 empty empty empty 17 7 0 10 #fcfcfc
#000000 #000000;
#X obj 158 937 tgl 15 0 empty empty empty 17 7 0 10 #fcfcfc #000000
#000000 0 1;
#X obj 119 974 spigot;
#X obj 119 1016 bng 15 250 50 0 empty empty empty 17 7 0 10 #fcfcfc
#000000 #000000;
#X obj 506 1143 send Kick;
#X obj 232 937 bng 15 250 50 0 empty empty empty 17 7 0 10 #fcfcfc
#000000 #000000;
#X obj 271 937 tgl 15 0 empty empty empty 17 7 0 10 #fcfcfc #000000
#000000 0 1;
#X obj 232 974 spigot;
#X obj 232 1016 bng 15 250 50 0 empty empty empty 17 7 0 10 #fcfcfc
#000000 #000000;
#X obj 345 937 bng 15 250 50 0 empty empty empty 17 7 0 10 #fcfcfc
#000000 #000000;
#X obj 384 937 tgl 15 0 empty empty empty 17 7 0 10 #fcfcfc #000000
#000000 0 1;
#X obj 345 974 spigot;
#X obj 345 1016 bng 15 250 50 0 empty empty empty 17 7 0 10 #fcfcfc
#000000 #000000;
#X obj 456 937 bng 15 250 50 0 empty empty empty 17 7 0 10 #fcfcfc
#000000 #000000;
#X obj 495 937 tgl 15 0 empty empty empty 17 7 0 10 #fcfcfc #000000
#000000 0 1;
#X obj 456 974 spigot;
#X obj 456 1016 bng 15 250 50 0 empty empty empty 17 7 0 10 #fcfcfc
#000000 #000000;
#X obj 570 937 bng 15 250 50 0 empty empty empty 17 7 0 10 #fcfcfc
#000000 #000000;
#X obj 609 937 tgl 15 0 empty empty empty 17 7 0 10 #fcfcfc #000000
#000000 0 1;
#X obj 570 974 spigot;
#X obj 570 1016 bng 15 250 50 0 empty empty empty 17 7 0 10 #fcfcfc
#000000 #000000;
#X obj 688 937 bng 15 250 50 0 empty empty empty 17 7 0 10 #fcfcfc
#000000 #000000;
#X obj 727 937 tgl 15 0 empty empty empty 17 7 0 10 #fcfcfc #000000
#000000 0 1;
#X obj 688 974 spigot;
#X obj 688 1016 bng 15 250 50 0 empty empty empty 17 7 0 10 #fcfcfc
#000000 #000000;
#X obj 800 937 bng 15 250 50 0 empty empty empty 17 7 0 10 #fcfcfc
#000000 #000000;
#X obj 839 937 tgl 15 0 empty empty empty 17 7 0 10 #fcfcfc #000000
#000000 0 1;
#X obj 800 974 spigot;
#X obj 800 1016 bng 15 250 50 0 empty empty empty 17 7 0 10 #fcfcfc
#000000 #000000;
#X obj 917 937 bng 15 250 50 0 empty empty empty 17 7 0 10 #fcfcfc
#000000 #000000;
#X obj 956 937 tgl 15 0 empty empty empty 17 7 0 10 #fcfcfc #000000
#000000 0 1;
#X obj 917 974 spigot;
#X obj 917 1016 bng 15 250 50 0 empty empty empty 17 7 0 10 #fcfcfc
#000000 #000000;
#X obj 232 895 receive Two;
#X obj 345 895 receive Three;
#X obj 456 895 receive Four;
#X obj 570 895 receive Five;
#X obj 688 895 receive Six;
#X obj 800 895 receive Seven;
#X obj 917 895 receive Eight;
#X obj 1216 94 receive Kick;
#X obj 1216 136 bng 15 250 50 0 empty empty empty 17 7 0 10 #fcfcfc
#000000 #000000;
#X msg 1216 173 open Bass-Drum-1.wav \, 1;
#X obj 1216 215 readsf~;
#X obj 1201 436 dac~;
#X obj 1041 895 receive One;
#X obj 1041 937 bng 15 250 50 0 empty empty empty 17 7 0 10 #fcfcfc
#000000 #000000;
#X obj 1080 937 tgl 15 0 empty empty empty 17 7 0 10 #fcfcfc #000000
#000000 0 1;
#X obj 1041 974 spigot;
#X obj 1041 1016 bng 15 250 50 0 empty empty empty 17 7 0 10 #fcfcfc
#000000 #000000;
#X obj 1154 937 bng 15 250 50 0 empty empty empty 17 7 0 10 #fcfcfc
#000000 #000000;
#X obj 1193 937 tgl 15 0 empty empty empty 17 7 0 10 #fcfcfc #000000
#000000 0 1;
#X obj 1154 974 spigot;
#X obj 1154 1016 bng 15 250 50 0 empty empty empty 17 7 0 10 #fcfcfc
#000000 #000000;
#X obj 1267 937 bng 15 250 50 0 empty empty empty 17 7 0 10 #fcfcfc
#000000 #000000;
#X obj 1306 937 tgl 15 0 empty empty empty 17 7 0 10 #fcfcfc #000000
#000000 0 1;
#X obj 1267 974 spigot;
#X obj 1267 1016 bng 15 250 50 0 empty empty empty 17 7 0 10 #fcfcfc
#000000 #000000;
#X obj 1378 937 bng 15 250 50 0 empty empty empty 17 7 0 10 #fcfcfc
#000000 #000000;
#X obj 1417 937 tgl 15 0 empty empty empty 17 7 0 10 #fcfcfc #000000
#000000 0 1;
#X obj 1378 974 spigot;
#X obj 1378 1016 bng 15 250 50 0 empty empty empty 17 7 0 10 #fcfcfc
#000000 #000000;
#X obj 1492 937 bng 15 250 50 0 empty empty empty 17 7 0 10 #fcfcfc
#000000 #000000;
#X obj 1531 937 tgl 15 0 empty empty empty 17 7 0 10 #fcfcfc #000000
#000000 0 1;
#X obj 1492 974 spigot;
#X obj 1492 1016 bng 15 250 50 0 empty empty empty 17 7 0 10 #fcfcfc
#000000 #000000;
#X obj 1610 937 bng 15 250 50 0 empty empty empty 17 7 0 10 #fcfcfc
#000000 #000000;
#X obj 1649 937 tgl 15 0 empty empty empty 17 7 0 10 #fcfcfc #000000
#000000 0 1;
#X obj 1610 974 spigot;
#X obj 1610 1016 bng 15 250 50 0 empty empty empty 17 7 0 10 #fcfcfc
#000000 #000000;
#X obj 1722 937 bng 15 250 50 0 empty empty empty 17 7 0 10 #fcfcfc
#000000 #000000;
#X obj 1761 937 tgl 15 0 empty empty empty 17 7 0 10 #fcfcfc #000000
#000000 0 1;
#X obj 1722 974 spigot;
#X obj 1722 1016 bng 15 250 50 0 empty empty empty 17 7 0 10 #fcfcfc
#000000 #000000;
#X obj 1839 937 bng 15 250 50 0 empty empty empty 17 7 0 10 #fcfcfc
#000000 #000000;
#X obj 1878 937 tgl 15 0 empty empty empty 17 7 0 10 #fcfcfc #000000
#000000 0 1;
#X obj 1839 974 spigot;
#X obj 1839 1016 bng 15 250 50 0 empty empty empty 17 7 0 10 #fcfcfc
#000000 #000000;
#X obj 1154 895 receive Two;
#X obj 1267 895 receive Three;
#X obj 1378 895 receive Four;
#X obj 1492 895 receive Five;
#X obj 1610 895 receive Six;
#X obj 1722 895 receive Seven;
#X obj 1839 895 receive Eight;
#X obj 100 1190 receive One;
#X obj 100 1232 bng 15 250 50 0 empty empty empty 17 7 0 10 #fcfcfc
#000000 #000000;
#X obj 139 1232 tgl 15 0 empty empty empty 17 7 0 10 #fcfcfc #000000
#000000 0 1;
#X obj 100 1269 spigot;
#X obj 100 1311 bng 15 250 50 0 empty empty empty 17 7 0 10 #fcfcfc
#000000 #000000;
#X obj 213 1232 bng 15 250 50 0 empty empty empty 17 7 0 10 #fcfcfc
#000000 #000000;
#X obj 252 1232 tgl 15 0 empty empty empty 17 7 0 10 #fcfcfc #000000
#000000 0 1;
#X obj 213 1269 spigot;
#X obj 213 1311 bng 15 250 50 0 empty empty empty 17 7 0 10 #fcfcfc
#000000 #000000;
#X obj 326 1232 bng 15 250 50 0 empty empty empty 17 7 0 10 #fcfcfc
#000000 #000000;
#X obj 365 1232 tgl 15 0 empty empty empty 17 7 0 10 #fcfcfc #000000
#000000 0 1;
#X obj 326 1269 spigot;
#X obj 326 1311 bng 15 250 50 0 empty empty empty 17 7 0 10 #fcfcfc
#000000 #000000;
#X obj 437 1232 bng 15 250 50 0 empty empty empty 17 7 0 10 #fcfcfc
#000000 #000000;
#X obj 476 1232 tgl 15 0 empty empty empty 17 7 0 10 #fcfcfc #000000
#000000 0 1;
#X obj 437 1269 spigot;
#X obj 437 1311 bng 15 250 50 0 empty empty empty 17 7 0 10 #fcfcfc
#000000 #000000;
#X obj 551 1232 bng 15 250 50 0 empty empty empty 17 7 0 10 #fcfcfc
#000000 #000000;
#X obj 590 1232 tgl 15 0 empty empty empty 17 7 0 10 #fcfcfc #000000
#000000 0 1;
#X obj 551 1269 spigot;
#X obj 551 1311 bng 15 250 50 0 empty empty empty 17 7 0 10 #fcfcfc
#000000 #000000;
#X obj 669 1232 bng 15 250 50 0 empty empty empty 17 7 0 10 #fcfcfc
#000000 #000000;
#X obj 708 1232 tgl 15 0 empty empty empty 17 7 0 10 #fcfcfc #000000
#000000 0 1;
#X obj 669 1269 spigot;
#X obj 669 1311 bng 15 250 50 0 empty empty empty 17 7 0 10 #fcfcfc
#000000 #000000;
#X obj 781 1232 bng 15 250 50 0 empty empty empty 17 7 0 10 #fcfcfc
#000000 #000000;
#X obj 820 1232 tgl 15 0 empty empty empty 17 7 0 10 #fcfcfc #000000
#000000 0 1;
#X obj 781 1269 spigot;
#X obj 781 1311 bng 15 250 50 0 empty empty empty 17 7 0 10 #fcfcfc
#000000 #000000;
#X obj 898 1232 bng 15 250 50 0 empty empty empty 17 7 0 10 #fcfcfc
#000000 #000000;
#X obj 937 1232 tgl 15 0 empty empty empty 17 7 0 10 #fcfcfc #000000
#000000 0 1;
#X obj 898 1269 spigot;
#X obj 898 1311 bng 15 250 50 0 empty empty empty 17 7 0 10 #fcfcfc
#000000 #000000;
#X obj 213 1190 receive Two;
#X obj 326 1190 receive Three;
#X obj 437 1190 receive Four;
#X obj 551 1190 receive Five;
#X obj 669 1190 receive Six;
#X obj 781 1190 receive Seven;
#X obj 898 1190 receive Eight;
#X obj 1027 1190 receive One;
#X obj 1027 1232 bng 15 250 50 0 empty empty empty 17 7 0 10 #fcfcfc
#000000 #000000;
#X obj 1066 1232 tgl 15 0 empty empty empty 17 7 0 10 #fcfcfc #000000
#000000 0 1;
#X obj 1027 1269 spigot;
#X obj 1027 1311 bng 15 250 50 0 empty empty empty 17 7 0 10 #fcfcfc
#000000 #000000;
#X obj 1140 1232 bng 15 250 50 0 empty empty empty 17 7 0 10 #fcfcfc
#000000 #000000;
#X obj 1179 1232 tgl 15 0 empty empty empty 17 7 0 10 #fcfcfc #000000
#000000 0 1;
#X obj 1140 1269 spigot;
#X obj 1140 1311 bng 15 250 50 0 empty empty empty 17 7 0 10 #fcfcfc
#000000 #000000;
#X obj 1253 1232 bng 15 250 50 0 empty empty empty 17 7 0 10 #fcfcfc
#000000 #000000;
#X obj 1292 1232 tgl 15 0 empty empty empty 17 7 0 10 #fcfcfc #000000
#000000 0 1;
#X obj 1253 1269 spigot;
#X obj 1253 1311 bng 15 250 50 0 empty empty empty 17 7 0 10 #fcfcfc
#000000 #000000;
#X obj 1364 1232 bng 15 250 50 0 empty empty empty 17 7 0 10 #fcfcfc
#000000 #000000;
#X obj 1403 1232 tgl 15 0 empty empty empty 17 7 0 10 #fcfcfc #000000
#000000 0 1;
#X obj 1364 1269 spigot;
#X obj 1364 1311 bng 15 250 50 0 empty empty empty 17 7 0 10 #fcfcfc
#000000 #000000;
#X obj 1478 1232 bng 15 250 50 0 empty empty empty 17 7 0 10 #fcfcfc
#000000 #000000;
#X obj 1517 1232 tgl 15 0 empty empty empty 17 7 0 10 #fcfcfc #000000
#000000 0 1;
#X obj 1478 1269 spigot;
#X obj 1478 1311 bng 15 250 50 0 empty empty empty 17 7 0 10 #fcfcfc
#000000 #000000;
#X obj 1596 1232 bng 15 250 50 0 empty empty empty 17 7 0 10 #fcfcfc
#000000 #000000;
#X obj 1635 1232 tgl 15 0 empty empty empty 17 7 0 10 #fcfcfc #000000
#000000 0 1;
#X obj 1596 1269 spigot;
#X obj 1596 1311 bng 15 250 50 0 empty empty empty 17 7 0 10 #fcfcfc
#000000 #000000;
#X obj 1708 1232 bng 15 250 50 0 empty empty empty 17 7 0 10 #fcfcfc
#000000 #000000;
#X obj 1747 1232 tgl 15 0 empty empty empty 17 7 0 10 #fcfcfc #000000
#000000 0 1;
#X obj 1708 1269 spigot;
#X obj 1708 1311 bng 15 250 50 0 empty empty empty 17 7 0 10 #fcfcfc
#000000 #000000;
#X obj 1825 1232 bng 15 250 50 0 empty empty empty 17 7 0 10 #fcfcfc
#000000 #000000;
#X obj 1864 1232 tgl 15 0 empty empty empty 17 7 0 10 #fcfcfc #000000
#000000 0 1;
#X obj 1825 1269 spigot;
#X obj 1825 1311 bng 15 250 50 0 empty empty empty 17 7 0 10 #fcfcfc
#000000 #000000;
#X obj 1140 1190 receive Two;
#X obj 1253 1190 receive Three;
#X obj 1364 1190 receive Four;
#X obj 1478 1190 receive Five;
#X obj 1596 1190 receive Six;
#X obj 1708 1190 receive Seven;
#X obj 1825 1190 receive Eight;
#X obj 1428 1143 send Snare;
#X obj 702 136 bng 15 250 50 0 empty empty empty 17 7 0 10 #fcfcfc
#000000 #000000;
#X obj 1440 138 bng 15 250 50 0 empty empty empty 17 7 0 10 #fcfcfc
#000000 #000000;
#X obj 961 136 bng 15 250 50 0 empty empty empty 17 7 0 10 #fcfcfc
#000000 #000000;
#X obj 961 215 readsf~;
#X obj 961 275 *~ 0.5;
#X obj 702 215 readsf~;
#X obj 702 275 *~ 0.5;
#X obj 1440 217 readsf~;
#X obj 1440 277 *~ 0.5;
#X msg 702 173 open Hip-Hop-Snare-1.wav \, 1;
#X msg 961 173 open Closed-Hi-Hat-1.wav \, 1;
#X msg 1440 175 open Alesis-Fusion-Bass-C3.wav \, 1;
#X obj 702 94 receive Snare;
#X obj 961 94 receive Hat;
#X obj 1440 96 receive Bass;
#X obj 1414 1438 send Bass;
#X obj 487 1438 send Hat;
#X obj 1216 257 *~ 0.25;
#X connect 0 0 1 0;
#X connect 1 0 2 0;
#X connect 2 0 3 1;
#X connect 3 0 8 0;
#X connect 4 0 3 0;
#X connect 4 0 5 0;
#X connect 5 0 7 0;
#X connect 6 0 7 0;
#X connect 7 0 11 0;
#X connect 8 0 9 0;
#X connect 9 0 10 0;
#X connect 9 0 40 0;
#X connect 10 0 9 1;
#X connect 11 0 9 0;
#X connect 12 0 13 0;
#X connect 13 0 14 0;
#X connect 14 0 15 0;
#X connect 14 0 24 0;
#X connect 14 0 26 0;
#X connect 14 0 28 0;
#X connect 14 0 30 0;
#X connect 14 0 32 0;
#X connect 14 0 34 0;
#X connect 14 0 37 0;
#X connect 15 0 16 0;
#X connect 16 0 17 0;
#X connect 18 0 25 0;
#X connect 19 0 27 0;
#X connect 20 0 29 0;
#X connect 21 0 31 0;
#X connect 22 0 33 0;
#X connect 23 0 35 0;
#X connect 24 0 18 0;
#X connect 26 0 19 0;
#X connect 28 0 20 0;
#X connect 30 0 21 0;
#X connect 32 0 22 0;
#X connect 34 0 23 0;
#X connect 36 0 38 0;
#X connect 37 0 36 0;
#X connect 40 0 12 0;
#X connect 45 0 46 0;
#X connect 46 0 48 0;
#X connect 47 0 48 1;
#X connect 48 0 49 0;
#X connect 49 0 50 0;
#X connect 51 0 53 0;
#X connect 52 0 53 1;
#X connect 53 0 54 0;
#X connect 54 0 50 0;
#X connect 55 0 57 0;
#X connect 56 0 57 1;
#X connect 57 0 58 0;
#X connect 58 0 50 0;
#X connect 59 0 61 0;
#X connect 60 0 61 1;
#X connect 61 0 62 0;
#X connect 62 0 50 0;
#X connect 63 0 65 0;
#X connect 64 0 65 1;
#X connect 65 0 66 0;
#X connect 66 0 50 0;
#X connect 67 0 69 0;
#X connect 68 0 69 1;
#X connect 69 0 70 0;
#X connect 70 0 50 0;
#X connect 71 0 73 0;
#X connect 72 0 73 1;
#X connect 73 0 74 0;
#X connect 74 0 50 0;
#X connect 75 0 77 0;
#X connect 76 0 77 1;
#X connect 77 0 78 0;
#X connect 78 0 50 0;
#X connect 79 0 51 0;
#X connect 80 0 55 0;
#X connect 81 0 59 0;
#X connect 82 0 63 0;
#X connect 83 0 67 0;
#X connect 84 0 71 0;
#X connect 85 0 75 0;
#X connect 86 0 87 0;
#X connect 87 0 88 0;
#X connect 88 0 89 0;
#X connect 89 0 229 0;
#X connect 91 0 92 0;
#X connect 92 0 94 0;
#X connect 93 0 94 1;
#X connect 94 0 95 0;
#X connect 95 0 211 0;
#X connect 96 0 98 0;
#X connect 97 0 98 1;
#X connect 98 0 99 0;
#X connect 99 0 211 0;
#X connect 100 0 102 0;
#X connect 101 0 102 1;
#X connect 102 0 103 0;
#X connect 103 0 211 0;
#X connect 104 0 106 0;
#X connect 105 0 106 1;
#X connect 106 0 107 0;
#X connect 107 0 211 0;
#X connect 108 0 110 0;
#X connect 109 0 110 1;
#X connect 110 0 111 0;
#X connect 111 0 211 0;
#X connect 112 0 114 0;
#X connect 113 0 114 1;
#X connect 114 0 115 0;
#X connect 115 0 211 0;
#X connect 116 0 118 0;
#X connect 117 0 118 1;
#X connect 118 0 119 0;
#X connect 119 0 211 0;
#X connect 120 0 122 0;
#X connect 121 0 122 1;
#X connect 122 0 123 0;
#X connect 123 0 211 0;
#X connect 124 0 96 0;
#X connect 125 0 100 0;
#X connect 126 0 104 0;
#X connect 127 0 108 0;
#X connect 128 0 112 0;
#X connect 129 0 116 0;
#X connect 130 0 120 0;
#X connect 131 0 132 0;
#X connect 132 0 134 0;
#X connect 133 0 134 1;
#X connect 134 0 135 0;
#X connect 135 0 228 0;
#X connect 136 0 138 0;
#X connect 137 0 138 1;
#X connect 138 0 139 0;
#X connect 139 0 228 0;
#X connect 140 0 142 0;
#X connect 141 0 142 1;
#X connect 142 0 143 0;
#X connect 143 0 228 0;
#X connect 144 0 146 0;
#X connect 145 0 146 1;
#X connect 146 0 147 0;
#X connect 147 0 228 0;
#X connect 148 0 150 0;
#X connect 149 0 150 1;
#X connect 150 0 151 0;
#X connect 151 0 228 0;
#X connect 152 0 154 0;
#X connect 153 0 154 1;
#X connect 154 0 155 0;
#X connect 155 0 228 0;
#X connect 156 0 158 0;
#X connect 157 0 158 1;
#X connect 158 0 159 0;
#X connect 159 0 228 0;
#X connect 160 0 162 0;
#X connect 161 0 162 1;
#X connect 162 0 163 0;
#X connect 163 0 228 0;
#X connect 164 0 136 0;
#X connect 165 0 140 0;
#X connect 166 0 144 0;
#X connect 167 0 148 0;
#X connect 168 0 152 0;
#X connect 169 0 156 0;
#X connect 170 0 160 0;
#X connect 171 0 172 0;
#X connect 172 0 174 0;
#X connect 173 0 174 1;
#X connect 174 0 175 0;
#X connect 175 0 227 0;
#X connect 176 0 178 0;
#X connect 177 0 178 1;
#X connect 178 0 179 0;
#X connect 179 0 227 0;
#X connect 180 0 182 0;
#X connect 181 0 182 1;
#X connect 182 0 183 0;
#X connect 183 0 227 0;
#X connect 184 0 186 0;
#X connect 185 0 186 1;
#X connect 186 0 187 0;
#X connect 187 0 227 0;
#X connect 188 0 190 0;
#X connect 189 0 190 1;
#X connect 190 0 191 0;
#X connect 191 0 227 0;
#X connect 192 0 194 0;
#X connect 193 0 194 1;
#X connect 194 0 195 0;
#X connect 195 0 227 0;
#X connect 196 0 198 0;
#X connect 197 0 198 1;
#X connect 198 0 199 0;
#X connect 199 0 227 0;
#X connect 200 0 202 0;
#X connect 201 0 202 1;
#X connect 202 0 203 0;
#X connect 203 0 227 0;
#X connect 204 0 176 0;
#X connect 205 0 180 0;
#X connect 206 0 184 0;
#X connect 207 0 188 0;
#X connect 208 0 192 0;
#X connect 209 0 196 0;
#X connect 210 0 200 0;
#X connect 212 0 221 0;
#X connect 213 0 223 0;
#X connect 214 0 222 0;
#X connect 215 0 216 0;
#X connect 216 0 90 0;
#X connect 216 0 90 1;
#X connect 217 0 218 0;
#X connect 218 0 90 0;
#X connect 218 0 90 1;
#X connect 219 0 220 0;
#X connect 220 0 90 0;
#X connect 220 0 90 1;
#X connect 221 0 217 0;
#X connect 222 0 215 0;
#X connect 223 0 219 0;
#X connect 224 0 212 0;
#X connect 225 0 214 0;
#X connect 226 0 213 0;
#X connect 229 0 90 0;
#X connect 229 0 90 1;
