#N canvas 1600 0 1280 964 12;
#X obj 66 792 dac~;
#X floatatom 297 453 5 0 0 0 - - - 0;
#X obj 66 466 osc~ 440;
#X obj 297 497 osc~;
#X obj 297 537 *~ 0.75;
#X obj 297 411 * 2;
#X floatatom 66 246 9 0 0 0 - - - 0;
#X floatatom 418 456 5 0 0 0 - - - 0;
#X obj 418 500 osc~;
#X floatatom 536 457 5 0 0 0 - - - 0;
#X obj 536 501 osc~;
#X floatatom 664 458 5 0 0 0 - - - 0;
#X obj 664 502 osc~;
#X obj 664 416 * 5;
#X obj 536 415 * 4;
#X obj 418 414 * 3;
#X obj 418 540 *~ 0.5;
#X obj 536 541 *~ 0.4;
#X obj 664 542 *~ 0.3;
#X obj 66 746 *~ 0.1;
#X text 89 43 Στο παρακάτω παράδειγμα δημιουργούμε
ένα Additive Syntesiser για αυτό χρησιμοποιούμε
ένα κύριο OSC με συχνότητα σταθερή και
4 δευτερέυοντα. Τα δευτερεύοντα OSC παίρνουν
συχνότητα πολλαπλασιαμένη ανάλογα με
μια τιμή που δίνουμε σαν αρχικό όρισμα
σε ένα αντικείενο τιμής αριθμού.;
#X text 631 44 Ενεργοποιόντας και πάλι τον
ήχο όπως και στο παράδειγμα simpleBeep.pd μπορούμε
να ακούσουμε ένα πιο πλούσιο ήχο. Τον
ήχο αυτό μπορούμε να το αλλάξουμε αλλάζοντας
την τιμή εισόδου που έχουμε δώσει στο
αντικείμενο αριθμού.;
#X text 635 157 Το αντικείμενο με όρισμα (*~)
μειωνει ή αυξάνει σε ποσοστιαία την ένταση
του σήματος που δέχεται ώστε να μην παραχθεί
κάποιος πολύ δυνατός ήχος που δεν θα
ήταν ευχάριστος για τα αυτιά μας αλλά
ούτε και για τα ηχεία του υπολογιστή
μας. Όσα αντικείμενα έχουν όρισμα και
το σύμβολο (~) επεξεργάζονται κάποιο σήμα.
Στην αρχή των δευτερεύοντων OSC που δημιουργούμε
την συχνότητα που θέλουμε να έχουν δεν
χρειάζεται να επεξεργαστούμε σήμα αλλά
αριθμό. Γι'αυτό το λόγο και χρησιμοποιούμε
απλό πολλαπλασιαμό με το σύμβολο (*) σκέτο.
;
#X obj 66 142 loadbang;
#X msg 66 186 440, f 4;
#X text 54 853 Το αντικείμενο πάνω πάνω με το
όνομα "loadbang" ορίζεται για να περνάει μια
αρχική τιμή στο synthesizer μας κάθε φορά που
το ανοίγουμε. Αλλιώς η αρχική τιμή του
θα είναι το 0 και θα πρέπει να επεξεργαστούμε
το αρχικό πεδίο.;
#X connect 1 0 3 0;
#X connect 2 0 19 0;
#X connect 3 0 4 0;
#X connect 4 0 19 0;
#X connect 5 0 1 0;
#X connect 6 0 2 0;
#X connect 6 0 5 0;
#X connect 6 0 13 0;
#X connect 6 0 14 0;
#X connect 6 0 15 0;
#X connect 7 0 8 0;
#X connect 8 0 16 0;
#X connect 9 0 10 0;
#X connect 10 0 17 0;
#X connect 11 0 12 0;
#X connect 12 0 18 0;
#X connect 13 0 11 0;
#X connect 14 0 9 0;
#X connect 15 0 7 0;
#X connect 16 0 19 0;
#X connect 17 0 19 0;
#X connect 18 0 19 0;
#X connect 19 0 0 0;
#X connect 23 0 24 0;
#X connect 24 0 6 0;
