#N canvas 0 -8 952 1113 12;
#X obj 226 907 noise~;
#X obj 226 1431 *~, f 4;
#X obj 419 870 bng 15 250 50 0 empty empty empty 17 7 0 10 #fcfcfc
#000000 #000000;
#X floatatom 419 1262 5 0 0 0 - - - 0;
#X obj 556 991 bng 15 250 50 0 empty empty empty 17 7 0 10 #fcfcfc
#000000 #000000;
#X obj 733 1106 bng 15 250 50 0 empty empty empty 17 7 0 10 #fcfcfc
#000000 #000000;
#X obj 227 1507 *~ 0.25;
#X obj 226 1575 dac~;
#X msg 419 945 1 5;
#X obj 226 978 *~ 1;
#X obj 103 1118 *~ 1;
#X obj 225 1066 bp~ 150 4;
#X obj 225 1122 *~ 20;
#X obj 224 1188 clip~ -0.9 0.9;
#X msg 556 1059 0.25 50;
#X msg 733 1147 0 300;
#X obj 733 1064 delay 50;
#X obj 102 1064 hip~ 8000;
#X obj 419 1217 line;
#X obj 556 939 delay 5;
#X msg 56 16 devices;
#X obj 56 95 comport 32 9600;
#X obj 3 140 print;
#X msg 140 19 open 32;
#X obj 56 188 sel 13 10;
#X floatatom 56 418 5 0 0 0 - - - 0;
#X obj 56 230 cyclone/zl group 100;
#X obj 56 331 cyclone/fromsymbol;
#X obj 56 278 list tosymbol;
#X msg 234 19 close;
#X msg 56 541 1;
#X floatatom 56 615 5 0 0 0 - - - 0;
#X obj 57 480 sel 0;
#X connect 0 0 9 0;
#X connect 1 0 6 0;
#X connect 2 0 8 0;
#X connect 2 0 19 0;
#X connect 3 0 1 1;
#X connect 4 0 16 0;
#X connect 4 0 14 0;
#X connect 5 0 15 0;
#X connect 6 0 7 0;
#X connect 6 0 7 1;
#X connect 8 0 18 0;
#X connect 9 0 11 0;
#X connect 9 0 17 0;
#X connect 10 0 1 0;
#X connect 11 0 12 0;
#X connect 12 0 13 0;
#X connect 13 0 1 0;
#X connect 14 0 18 0;
#X connect 15 0 18 0;
#X connect 16 0 5 0;
#X connect 17 0 10 0;
#X connect 18 0 3 0;
#X connect 19 0 4 0;
#X connect 20 0 21 0;
#X connect 21 0 24 0;
#X connect 21 0 22 0;
#X connect 23 0 21 0;
#X connect 24 0 26 0;
#X connect 24 2 26 0;
#X connect 25 0 32 0;
#X connect 26 0 28 0;
#X connect 27 0 25 0;
#X connect 28 0 27 0;
#X connect 29 0 21 0;
#X connect 30 0 31 0;
#X connect 31 0 2 0;
#X connect 32 0 30 0;
