#N canvas 78 95 1076 688 12;
#X obj 458 66 osc~ 440;
#X obj 458 175 dac~;
#X text 60 269 Χρησιμοποιώντας το αντικείμενο
osc που μεταφράζεται σε Sine tone Oscillator δημιουργούμε
ένα συνεχώμενο beeping ήχο.;
#X text 500 267 Για να το δημιουργήσουμε απλά
προσθέτουμε ένα αντικείμενο (ctr+1) και
γράφουμε μέσα του osc~ και έναν αριθμό
που αντιστοιχεί στην συχνότητα που θέλουμε
να έχει;
#X text 55 354 Για να ακούσουμε τον ήχο που
παράγει το OSC προσθέτουμε με τον ίδιο
τρόπο ένα αντικείμενο DAC. Το αντικείμενο
αυτό ονομάζεται Digital to Analog Converter και μας
επιτρέπει να ακούσουμε τον ήχο που δημιουργεί
το αντικείμενο OSC.;
#X text 515 358 Για να ακούσουμε τον ήχο επίσης
πρέπει να έχουμε κάνει σωστά τις απαραίτητες
συνδέσεις. Όπως βλέπουμε από το πρώτο
αντικείμενο έχουμε έξοδους 2 καλλώδια
που πάνε στο δεύτερο αντικείμενο. Επιπλέον
πρέπει στο κεντρικό παράθυρο του PD πάνω
δεξιά να ενεργοποιήσουμε την επιλογή
DSP που ενεργοποιεί τον ήχο!;
#X connect 0 0 1 0;
#X connect 0 0 1 1;
